<svg version="1" xmlns="http://www.w3.org/2000/svg" width="2560" height="2560" viewBox="0 0 1920.000000 1920.000000"><path d="M4.8 105.7c-3.2 2-4.8 5.2-4.8 9.6 0 4.7 2.1 7 10.7 11.8 36.1 19.7 75.9 52.1 106.1 86.2 50.5 57 83.2 124.3 96.7 198.9 5.3 29.1 6.8 47.5 6.9 84.7l.2 34.4 5.1 4.7c11.9 11 42.3 29.7 70.8 43.6 43 21 87.9 36.4 139 47.9 19.3 4.3 49.1 9.7 61.3 11.1 3.4.3 6.2.9 6.2 1.3 0 .3-2.5 2.1-5.5 3.9-32.9 19.9-74.9 63.2-105.8 108.9-15.1 22.3-19.7 30.5-19.7 35.1 0 4.4 2.8 8.8 6.5 10.2 1.3.5 10.1 1.4 19.6 1.9 17.9 1.2 42.1.3 59.7-2 4.6-.6 8.5-.9 8.7-.8.2.2-2.1 4-5.1 8.4-36.7 53.7-66.4 119.3-82.9 182.8-32.6 126.1-44.7 381.2-30.5 639.2 3.8 67.3 7.5 107.5 10.6 114.1 3.4 7.1 17.4 10.5 29 6.8 7.9-2.5 18.5-9.7 27.4-18.8 4.1-4.2 7.7-7.6 8.1-7.6.3 0 1.2 2.6 1.9 5.7 3.5 15.9 12.1 38.5 17.7 46.6 5.1 7.4 13.2 9.8 19.8 5.7 5.9-3.7 7.1-8 17.5-65.5 2.8-15.4 5.7-30.7 6.4-34l1.4-6 .2 4.5c0 2.5.5 20.7 1 40.5.6 24.7 1.3 37.3 2.2 40 1.9 5.9 11.2 15 16.7 16.5 8.8 2.3 16.8-3.5 20.5-14.8 2.1-6.4 4.3-21.3 5.6-39 1.3-16.1 1.9-20.6 2.8-18.2 2.7 8 17.6 33.9 23.8 41.3 1.7 2 2.4 4.1 2.4 7 0 6.1 2.5 16.8 5 21.8 11.3 22.4 35.8 33.1 84.5 36.9 17.8 1.4 116.1 2.1 149 1 53.1-1.7 80.5-6.1 101.5-16.2 6.5-3.1 10.1-5.7 15.6-11.2 3.9-3.9 7.7-8.6 8.5-10.3 1.2-3 1.7-3.2 4.9-2.7 5.2.8 11.8-3 15.2-8.6 6.1-10 6.1-24.1-.2-61.4-4-23.7-5.7-36.5-4.7-35.6 1.2 1.2 7.3 35.3 12.6 71 8 53.9 8 53.7 12.1 58.3 2.4 2.7 3.5 3.2 7.3 3.2 3.1 0 5.2-.6 6.7-2 4.4-4 5-6.7 6-27.8 2.2-44.7 2.3-45.4 3.2-41.7.5 1.9.9 10 .8 18 0 16.5 1.1 22.3 6.2 30.7 11.6 19.2 39.6 30.3 86.3 34.4 43.1 3.7 162.6 3.6 199.2-.1 37.7-3.9 61-14.7 71.2-33.1l3.7-6.9 2.2 11.9c3.3 17.7 5.7 24.9 10.2 29.3 4.2 4.2 8 4.9 13 2.3 6.5-3.4 7.5-6.7 16.5-56 9.3-51.6 13.2-68.2 19.3-82.4l1.8-4.5 5.2 8.6c2.9 4.7 12 22.4 20.3 39.4 20.5 42.1 27 51.4 37.2 53.1 5 .8 8.1-.2 12.2-3.9 6.2-5.4 7.8-9.8 8.3-22.1.5-13.9-.8-24.1-7.3-57.2-8.5-43-11.8-63.5-10.2-63.5.6 0 4.7 13.1 10.5 33.5 3.9 13.8 6.6 23.9 15.7 58.5 7.6 29.3 8.6 32.9 13.2 49 9.7 33.7 14 41.9 22.7 43.6 4.5.8 10.1-1.8 12.6-5.8 1.8-3 2-5 2-21.8 0-10.2-.5-30.9-1-46-.5-15.1-1.9-53.6-3-85.5-3.3-94.8-4.9-140.5-6-167-.5-13.8-1.5-38.3-2-54.5-.6-16.2-1.5-40.1-2-53-.6-12.9-1.7-42-2.5-64.5-.8-22.6-1.9-52.3-2.5-66-1.5-39.3-2.9-73.8-5-130.5-3-80.4-3.1-80.8-5.1-91.5-15-76.8-46.4-152.3-90.5-217.3-4.6-6.7-8.2-12.2-8-12.2.3 0 3.8.7 8 1.5 22.6 4.3 49.4 5.9 73.9 4.5 18.8-1.2 22.2-2 25.1-6.2 3.2-4.5 2.1-8.8-5.5-21.4-19.2-32-40.3-58.8-67.4-86-18.9-19-30.5-28.9-46.8-39.7-10.8-7.3-10.9-6.8 1.3-8.2 15.7-1.8 50.6-8.5 73.5-14 67.9-16.5 131.4-43.1 178.4-74.9 7.4-5 15.7-11.2 18.5-13.7l5-4.6.2-34.4c.1-36.7 1.2-50.8 5.9-79.1 18-106.1 73.6-196.7 161.7-263.4 11.7-8.9 29.5-20.5 41.6-27.1 9.4-5.1 11.2-7.2 11.2-12.6 0-3.1-.7-4.6-3.5-7.4l-3.6-3.6-17.7.6c-79.5 2.6-152.6 50.7-217.2 143.1-33.6 48-69.1 119.1-89.7 179.3l-4.8 14.2-11 5.4c-21.2 10.5-56.8 22.5-82 27.7-27.3 5.7-56.5 7.4-75.5 4.6-5.2-.8-15.1-3.3-22-5.6-52.8-17.3-64.4-20.9-86.5-27.4-74.8-21.7-135.1-29.5-179.1-23.2l-8.2 1.2-.5-25.1c-1.1-50.2-9.2-80.6-22.7-84.6-10.6-3.2-18.4 3.7-30.4 27-8.3 16-14.1 25.7-16.9 27.9-1.4 1.2-1.8.9-3.4-2-2.7-4.9-2.3-22.8 1-45.4 4.8-32.9 4.6-41.9-.9-53.2-3.7-7.6-9-11.2-16.2-11.2-12.5 0-18.1 6.4-43.2 49.5-11.8 20.3-21.5 34.6-28.1 41.3l-5.2 5.3-2.5-2.3c-5.3-5-11.9-21-21.7-52.9-10.9-35.7-15.2-44.5-23.9-48.5-13.3-6.2-25.9.3-32 16.5-1.4 3.6-4.7 15.6-7.4 26.6-7.3 29.3-12.6 41.3-21.3 47.8-2.6 1.9-2.8 1.9-6.5.1-2.3-1-9.9-7.8-17.9-16-7.7-7.8-15.8-15.3-18-16.7-12-7.6-22.1-2.4-30.6 15.9-8 17-11.1 37.5-9.1 59.8 1.1 11.3 3.3 24.5 5.7 33.6l.6 2.6-21.8 1.2c-57.4 3-110.8 15.9-225.7 54.3-37.8 12.7-115.9-.5-174-29.2l-10.1-5-4.9-14.2c-17.3-50.7-45.8-110.6-74.3-156.1-31.3-50.1-68.4-91.9-106.2-120-41.2-30.5-87-46.7-132.3-46.6-8.8 0-11.9.4-14 1.7z"/></svg>